<svg width="40" height="40" viewBox="0 0 40 40" fill="none" xmlns="http://www.w3.org/2000/svg">
<circle cx="2.22278" cy="2.22278" r="2.22278" transform="matrix(-0.707112 -0.707102 0.707112 -0.707102 31.4255 22.7661)" fill="black"/>
<circle cx="2.22278" cy="2.22278" r="2.22278" transform="matrix(-0.707112 -0.707102 0.707112 -0.707102 26.0183 17.3594)" fill="black"/>
<path d="M26.0016 16.4378L28.2415 14.1979L28.241 14.3043C28.2378 15.0158 28.482 15.7063 28.9317 16.2576C29.0673 16.4239 29.2203 16.5757 29.3875 16.7101C29.8966 17.1193 30.5234 17.3571 31.1758 17.3878L31.4469 17.4005L29.2029 19.6445L29.2036 19.5789C29.2123 18.8368 28.9548 18.1162 28.4777 17.5478C28.3617 17.4096 28.2337 17.2816 28.0955 17.1656C27.5273 16.6888 26.807 16.4302 26.0652 16.4372L26.0016 16.4378Z" fill="black"/>
<circle cx="2.22278" cy="2.22278" r="2.22278" transform="matrix(-0.707112 -0.707102 0.707112 -0.707102 36.8562 22.6836)" fill="black"/>
<circle cx="2.22278" cy="2.22278" r="2.22278" transform="matrix(-0.707112 -0.707102 0.707112 -0.707102 31.4492 17.2769)" fill="black"/>
<path d="M31.4323 16.3553L33.6721 14.1154L33.6716 14.2218C33.6685 14.9333 33.9127 15.6238 34.3624 16.1751C34.498 16.3414 34.651 16.4932 34.8182 16.6276C35.3273 17.0368 35.9541 17.2746 36.6065 17.3053L36.8776 17.318L34.6335 19.562L34.6343 19.4964C34.643 18.7543 34.3854 18.0337 33.9084 17.4653C33.7923 17.327 33.6644 17.1991 33.5262 17.0831C32.958 16.6062 32.2376 16.3476 31.4959 16.3546L31.4323 16.3553Z" fill="black"/>
<circle cx="2.22278" cy="2.22278" r="2.22278" transform="matrix(-0.707112 -0.707102 0.707112 -0.707102 31.3284 28.2114)" fill="black"/>
<circle cx="2.22278" cy="2.22278" r="2.22278" transform="matrix(-0.707112 -0.707102 0.707112 -0.707102 25.9216 22.8047)" fill="black"/>
<path d="M25.9044 21.8831L28.1443 19.6433L28.1438 19.7496C28.1407 20.4611 28.3848 21.1516 28.8345 21.7029C28.9702 21.8692 29.1231 22.021 29.2904 22.1555C29.7995 22.5646 30.4262 22.8024 31.0787 22.8331L31.3498 22.8458L29.1057 25.0898L29.1065 25.0242C29.1152 24.2822 28.8576 23.5615 28.3805 22.9931C28.2645 22.8549 28.1366 22.7269 27.9983 22.6109C27.4301 22.1341 26.7098 21.8755 25.968 21.8825L25.9044 21.8831Z" fill="black"/>
<circle cx="2.22278" cy="2.22278" r="2.22278" transform="matrix(-0.707112 -0.707102 0.707112 -0.707102 31.4255 22.7661)" fill="#E6B402"/>
<circle cx="2.22278" cy="2.22278" r="2.22278" transform="matrix(-0.707112 -0.707102 0.707112 -0.707102 26.0183 17.3594)" fill="#E6B402"/>
<path d="M26.0016 16.4378L28.2415 14.1979L28.241 14.3043C28.2378 15.0158 28.482 15.7063 28.9317 16.2576C29.0673 16.4239 29.2203 16.5757 29.3875 16.7101C29.8966 17.1193 30.5234 17.3571 31.1758 17.3878L31.4469 17.4005L29.2029 19.6445L29.2036 19.5789C29.2123 18.8368 28.9548 18.1162 28.4777 17.5478C28.3617 17.4096 28.2337 17.2816 28.0955 17.1656C27.5273 16.6888 26.807 16.4302 26.0652 16.4372L26.0016 16.4378Z" fill="#E6B402"/>
<circle cx="2.22278" cy="2.22278" r="2.22278" transform="matrix(-0.707112 -0.707102 0.707112 -0.707102 36.8562 22.6836)" fill="#E6B402"/>
<circle cx="2.22278" cy="2.22278" r="2.22278" transform="matrix(-0.707112 -0.707102 0.707112 -0.707102 31.4492 17.2769)" fill="#E6B402"/>
<path d="M31.4323 16.3553L33.6721 14.1154L33.6716 14.2218C33.6685 14.9333 33.9127 15.6238 34.3624 16.1751C34.498 16.3414 34.651 16.4932 34.8182 16.6276C35.3273 17.0368 35.9541 17.2746 36.6065 17.3053L36.8776 17.318L34.6335 19.562L34.6343 19.4964C34.643 18.7543 34.3854 18.0337 33.9084 17.4653C33.7923 17.327 33.6644 17.1991 33.5262 17.0831C32.958 16.6062 32.2376 16.3476 31.4959 16.3546L31.4323 16.3553Z" fill="#E6B402"/>
<circle cx="2.22278" cy="2.22278" r="2.22278" transform="matrix(-0.707112 -0.707102 0.707112 -0.707102 31.3284 28.2114)" fill="#E6B402"/>
<circle cx="2.22278" cy="2.22278" r="2.22278" transform="matrix(-0.707112 -0.707102 0.707112 -0.707102 25.9216 22.8047)" fill="#E6B402"/>
<path d="M25.9044 21.8831L28.1443 19.6433L28.1438 19.7496C28.1407 20.4611 28.3848 21.1516 28.8345 21.7029C28.9702 21.8692 29.1231 22.021 29.2904 22.1555C29.7995 22.5646 30.4262 22.8024 31.0787 22.8331L31.3498 22.8458L29.1057 25.0898L29.1065 25.0242C29.1152 24.2822 28.8576 23.5615 28.3805 22.9931C28.2645 22.8549 28.1366 22.7269 27.9983 22.6109C27.4301 22.1341 26.7098 21.8755 25.968 21.8825L25.9044 21.8831Z" fill="#E6B402"/>
<circle cx="2.22278" cy="2.22278" r="2.22278" transform="matrix(-0.707112 0.707102 -0.707112 -0.707102 23.0916 8.57422)" fill="#D03737"/>
<circle cx="2.22278" cy="2.22278" r="2.22278" transform="matrix(-0.707112 0.707102 -0.707112 -0.707102 17.6846 13.981)" fill="#D03737"/>
<path d="M16.7634 13.9981L14.5236 11.7583L14.6299 11.7588C15.3414 11.7619 16.0319 11.5178 16.5833 11.068C16.7495 10.9324 16.9014 10.7794 17.0358 10.6122C17.445 10.1031 17.6827 9.47637 17.7134 8.82396L17.7262 8.55287L19.9702 10.7969L19.9046 10.7961C19.1625 10.7874 18.4419 11.045 17.8734 11.5221C17.7352 11.6381 17.6073 11.766 17.4913 11.9042C17.0144 12.4724 16.7558 13.1928 16.7628 13.9345L16.7634 13.9981Z" fill="#D03737"/>
<circle cx="2.22278" cy="2.22278" r="2.22278" transform="matrix(-0.707112 0.707102 -0.707112 -0.707102 23.0088 3.14307)" fill="#D03737"/>
<circle cx="2.22278" cy="2.22278" r="2.22278" transform="matrix(-0.707112 0.707102 -0.707112 -0.707102 17.6018 8.5498)" fill="#D03737"/>
<path d="M16.6804 8.56696L14.4405 6.32714L14.5469 6.32761C15.2584 6.33077 15.9489 6.08661 16.5003 5.63689C16.6665 5.50127 16.8184 5.3483 16.9528 5.18106C17.362 4.67199 17.5997 4.04522 17.6304 3.39281L17.6432 3.12172L19.8872 5.36572L19.8216 5.36495C19.0795 5.35627 18.3589 5.61382 17.7904 6.0909C17.6522 6.20691 17.5243 6.33486 17.4083 6.47309C16.9314 7.04128 16.6728 7.76161 16.6798 8.50337L16.6804 8.56696Z" fill="#D03737"/>
<circle cx="2.22278" cy="2.22278" r="2.22278" transform="matrix(-0.707112 0.707102 -0.707112 -0.707102 28.5366 8.67139)" fill="#D03737"/>
<circle cx="2.22278" cy="2.22278" r="2.22278" transform="matrix(-0.707112 0.707102 -0.707112 -0.707102 23.1296 14.0781)" fill="#D03737"/>
<path d="M22.2082 14.0953L19.9684 11.8555L20.0747 11.8559C20.7862 11.8591 21.4767 11.6149 22.0281 11.1652C22.1944 11.0296 22.3462 10.8766 22.4806 10.7094C22.8898 10.2003 23.1276 9.57354 23.1582 8.92113L23.171 8.65004L25.415 10.894L25.3494 10.8933C24.6073 10.8846 23.8867 11.1421 23.3183 11.6192C23.18 11.7352 23.0521 11.8632 22.9361 12.0014C22.4592 12.5696 22.2006 13.2899 22.2076 14.0317L22.2082 14.0953Z" fill="#D03737"/>
<circle cx="2.22278" cy="2.22278" r="2.22278" transform="matrix(0.707112 -0.707102 0.707112 0.707102 16.8257 30.499)" fill="#61EBBF"/>
<circle cx="2.22278" cy="2.22278" r="2.22278" transform="matrix(0.707112 -0.707102 0.707112 0.707102 22.2327 25.0923)" fill="#61EBBF"/>
<path d="M23.1538 25.0751L25.3937 27.315L25.2874 27.3145C24.5758 27.3113 23.8853 27.5555 23.334 28.0052C23.1677 28.1408 23.0159 28.2938 22.8815 28.461C22.4723 28.9701 22.2345 29.5969 22.2038 30.2493L22.1911 30.5204L19.947 28.2764L20.0126 28.2771C20.7547 28.2858 21.4753 28.0283 22.0438 27.5512C22.182 27.4352 22.31 27.3072 22.426 27.169C22.9028 26.6008 23.1614 25.8805 23.1544 25.1387L23.1538 25.0751Z" fill="#61EBBF"/>
<circle cx="2.22278" cy="2.22278" r="2.22278" transform="matrix(0.707112 -0.707102 0.707112 0.707102 16.9084 35.9307)" fill="#61EBBF"/>
<circle cx="2.22278" cy="2.22278" r="2.22278" transform="matrix(0.707112 -0.707102 0.707112 0.707102 22.3154 30.5239)" fill="#61EBBF"/>
<path d="M23.2366 30.5068L25.4764 32.7466L25.3701 32.7461C24.6586 32.743 23.9681 32.9871 23.4167 33.4368C23.2505 33.5725 23.0986 33.7254 22.9642 33.8927C22.555 34.4017 22.3173 35.0285 22.2866 35.6809L22.2738 35.952L20.0298 33.708L20.0954 33.7088C20.8375 33.7175 21.5581 33.4599 22.1266 32.9828C22.2648 32.8668 22.3927 32.7389 22.5087 32.6006C22.9856 32.0324 23.2442 31.3121 23.2372 30.5704L23.2366 30.5068Z" fill="#61EBBF"/>
<circle cx="2.22278" cy="2.22278" r="2.22278" transform="matrix(0.707112 -0.707102 0.707112 0.707102 11.3804 30.4023)" fill="#61EBBF"/>
<circle cx="2.22278" cy="2.22278" r="2.22278" transform="matrix(0.707112 -0.707102 0.707112 0.707102 16.7874 24.9956)" fill="#61EBBF"/>
<path d="M17.7085 24.9784L19.9484 27.2183L19.842 27.2178C19.1305 27.2146 18.44 27.4588 17.8887 27.9085C17.7224 28.0441 17.5706 28.1971 17.4361 28.3643C17.027 28.8734 16.7892 29.5002 16.7585 30.1526L16.7457 30.4237L14.5017 28.1797L14.5673 28.1805C15.3094 28.1891 16.03 27.9316 16.5985 27.4545C16.7367 27.3385 16.8647 27.2106 16.9807 27.0723C17.4575 26.5041 17.7161 25.7838 17.7091 25.042L17.7085 24.9784Z" fill="#61EBBF"/>
<circle cx="2.22278" cy="2.22278" r="2.22278" transform="matrix(0.707112 0.707102 -0.707112 0.707102 8.57446 16.1934)" fill="#61C1EB"/>
<circle cx="2.22278" cy="2.22278" r="2.22278" transform="matrix(0.707112 0.707102 -0.707112 0.707102 13.9814 21.6001)" fill="#61C1EB"/>
<path d="M13.9989 22.5217L11.759 24.7615L11.7595 24.6552C11.7627 23.9437 11.5185 23.2532 11.0688 22.7018C10.9332 22.5356 10.7802 22.3837 10.6129 22.2493C10.1039 21.8402 9.47708 21.6024 8.82466 21.5717L8.55357 21.5589L10.7976 19.3149L10.7968 19.3806C10.7882 20.1226 11.0457 20.8432 11.5228 21.4117C11.6388 21.5499 11.7668 21.6779 11.905 21.7939C12.4732 22.2707 13.1935 22.5293 13.9353 22.5223L13.9989 22.5217Z" fill="#61C1EB"/>
<circle cx="2.22278" cy="2.22278" r="2.22278" transform="matrix(0.707112 0.707102 -0.707112 0.707102 3.1438 16.2764)" fill="#61C1EB"/>
<circle cx="2.22278" cy="2.22278" r="2.22278" transform="matrix(0.707112 0.707102 -0.707112 0.707102 8.55029 21.6831)" fill="#61C1EB"/>
<path d="M8.56774 22.6047L6.32788 24.8445L6.32836 24.7382C6.33152 24.0267 6.08735 23.3362 5.63762 22.7848C5.50201 22.6186 5.34903 22.4668 5.18179 22.3323C4.67272 21.9232 4.04593 21.6854 3.39351 21.6547L3.12242 21.642L5.36646 19.3979L5.36569 19.4636C5.357 20.2056 5.61456 20.9262 6.09164 21.4947C6.20765 21.6329 6.33561 21.7609 6.47383 21.8769C7.04204 22.3537 7.76238 22.6123 8.50415 22.6053L8.56774 22.6047Z" fill="#61C1EB"/>
<circle cx="2.22278" cy="2.22278" r="2.22278" transform="matrix(0.707112 0.707102 -0.707112 0.707102 8.67188 10.748)" fill="#61C1EB"/>
<circle cx="2.22278" cy="2.22278" r="2.22278" transform="matrix(0.707112 0.707102 -0.707112 0.707102 14.0786 16.1548)" fill="#61C1EB"/>
<path d="M14.0958 17.0764L11.856 19.3162L11.8564 19.2099C11.8596 18.4984 11.6154 17.8079 11.1657 17.2565C11.0301 17.0903 10.8771 16.9384 10.7099 16.804C10.2008 16.3948 9.57401 16.1571 8.92159 16.1264L8.65049 16.1136L10.8945 13.8696L10.8938 13.9353C10.8851 14.6773 11.1426 15.3979 11.6197 15.9664C11.7357 16.1046 11.8637 16.2325 12.0019 16.3485C12.5701 16.8254 13.2905 17.084 14.0322 17.077L14.0958 17.0764Z" fill="#61C1EB"/>
</svg>
